<?xml version="1.0" standalone="no"?>
<!DOCTYPE svg PUBLIC "-//W3C//DTD SVG 20010904//EN"
 "http://www.w3.org/TR/2001/REC-SVG-20010904/DTD/svg10.dtd">
<svg version="1.0" xmlns="http://www.w3.org/2000/svg"
 width="128.000000pt" height="132.000000pt" viewBox="0 0 128.000000 132.000000"
 preserveAspectRatio="xMidYMid meet">

<g transform="translate(0.000000,132.000000) scale(0.100000,-0.100000)"
fill="#000000" stroke="none">
<path d="M540 1255 c-183 -42 -333 -157 -414 -319 -47 -93 -66 -172 -66 -271
1 -244 135 -455 355 -555 111 -51 271 -67 390 -39 189 44 354 189 427 374 40
102 50 252 24 355 -67 265 -291 452 -560 465 -60 3 -113 0 -156 -10z m232
-106 c178 -38 336 -192 379 -369 18 -75 16 -183 -5 -255 -65 -225 -296 -384
-525 -361 -378 38 -579 462 -369 776 111 166 321 251 520 209z"/>
<path d="M719 945 c-28 -15 -59 -56 -59 -77 0 -9 3 -9 10 2 8 13 10 13 10 -1
0 -9 7 -22 15 -29 9 -8 15 -8 15 -2 0 6 -4 12 -9 14 -4 2 -12 14 -16 27 -5 18
-4 22 6 16 8 -6 11 -4 7 7 -4 10 5 20 31 31 43 19 65 22 56 7 -4 -7 3 -9 22
-5 20 5 24 4 14 -3 -11 -8 -8 -10 12 -9 34 2 34 11 2 25 -34 16 -84 14 -116
-3z"/>
<path d="M800 896 c0 -9 5 -16 10 -16 6 0 10 4 10 9 0 6 -4 13 -10 16 -5 3
-10 -1 -10 -9z"/>
<path d="M886 859 c6 -53 -12 -91 -46 -99 -14 -4 -24 -11 -23 -16 3 -15 -77
-10 -86 5 -13 20 -33 3 -25 -21 3 -11 2 -18 -2 -15 -5 3 -10 -6 -11 -20 -1
-19 1 -22 8 -12 5 8 9 10 9 5 0 -5 9 -1 21 10 11 10 36 19 54 21 46 3 72 18
95 56 21 33 26 92 11 116 -6 9 -7 -3 -5 -30z m-161 -119 c3 -5 1 -10 -4 -10
-6 0 -11 5 -11 10 0 6 2 10 4 10 3 0 8 -4 11 -10z m-2 -35 c-3 -9 -8 -14 -10
-11 -3 3 -2 9 2 15 9 16 15 13 8 -4z"/>
<path d="M700 869 c0 -5 5 -7 10 -4 6 3 10 8 10 11 0 2 -4 4 -10 4 -5 0 -10
-5 -10 -11z"/>
<path d="M656 835 c-6 -17 13 -65 26 -65 13 0 10 16 -6 29 -8 7 -12 21 -9 31
6 23 -2 27 -11 5z"/>
<path d="M680 820 c0 -5 5 -10 11 -10 5 0 7 5 4 10 -3 6 -8 10 -11 10 -2 0 -4
-4 -4 -10z"/>
<path d="M703 795 c-3 -9 -3 -18 -1 -21 3 -3 8 4 11 16 6 23 -1 27 -10 5z"/>
<path d="M425 778 c-53 -30 -80 -84 -66 -133 8 -27 9 -26 9 18 0 26 2 50 5 54
4 3 6 -11 5 -31 -1 -20 2 -39 5 -42 3 -4 2 -14 -3 -23 -11 -22 36 -69 78 -77
38 -8 100 21 120 56 22 37 56 51 81 33 12 -8 21 -20 21 -28 0 -7 6 -16 13 -18
8 -4 4 -12 -12 -25 -31 -25 -34 -96 -5 -135 29 -40 87 -62 131 -51 43 11 66
40 43 54 -24 15 -33 12 -16 -6 17 -17 13 -36 -7 -32 -7 1 -23 -2 -36 -6 -34
-12 -118 34 -104 57 3 6 1 7 -5 3 -11 -7 -18 22 -12 49 1 6 2 20 2 32 0 12 5
21 10 20 6 -1 19 13 29 31 10 17 14 32 9 32 -6 0 -10 -6 -11 -12 0 -7 -4 -3
-9 9 -11 26 -70 60 -79 45 -3 -6 -19 -14 -35 -18 -17 -4 -23 -9 -16 -14 8 -5
6 -9 -6 -14 -9 -3 -14 -9 -11 -13 9 -8 -24 -32 -43 -33 -12 0 -13 2 -1 9 11 7
9 10 -8 16 -13 4 -25 4 -28 1 -4 -3 2 -6 13 -7 10 -1 1 -5 -20 -10 -42 -10
-60 -4 -36 11 12 8 11 10 -5 11 -11 1 -23 1 -27 1 -3 -1 -6 13 -6 31 -1 18 -2
49 -4 70 -2 20 0 37 4 37 5 0 8 6 8 13 0 18 67 41 83 29 7 -5 27 -9 45 -9 33
0 33 1 10 13 -28 16 -86 17 -113 2z m68 -225 c-7 -2 -21 -2 -30 0 -10 3 -4 5
12 5 17 0 24 -2 18 -5z"/>
<path d="M796 763 c-6 -14 -5 -15 5 -6 7 7 10 15 7 18 -3 3 -9 -2 -12 -12z"/>
<path d="M681 744 c0 -11 3 -14 6 -6 3 7 2 16 -1 19 -3 4 -6 -2 -5 -13z"/>
<path d="M757 749 c7 -7 15 -10 18 -7 3 3 -2 9 -12 12 -14 6 -15 5 -6 -5z"/>
<path d="M560 743 c0 -7 5 -13 10 -13 6 0 10 -5 10 -11 0 -5 -5 -7 -11 -3 -7
4 -7 -2 1 -17 18 -34 24 -38 15 -11 -6 21 -5 22 14 10 19 -12 19 -13 3 -32
-16 -20 -16 -20 3 -6 11 8 23 19 26 24 4 4 10 3 13 -3 13 -20 34 -12 34 13 0
21 -3 23 -14 11 -20 -20 -54 -10 -81 22 -12 16 -22 22 -23 16z"/>
<path d="M566 657 c3 -10 9 -15 12 -12 3 3 0 11 -7 18 -10 9 -11 8 -5 -6z"/>
<path d="M713 649 c0 -29 31 -47 71 -43 14 1 25 0 25 -4 -3 -19 2 -23 16 -12
10 8 15 9 15 2 0 -6 11 -23 24 -37 19 -20 24 -35 22 -65 -2 -24 1 -37 7 -33 5
3 7 26 4 51 -7 62 -48 102 -111 109 -37 5 -50 11 -60 31 l-13 26 0 -25z"/>
<path d="M686 515 c-9 -26 -7 -32 5 -12 6 10 9 21 6 23 -2 3 -7 -2 -11 -11z"/>
<path d="M711 494 c0 -11 3 -14 6 -6 3 7 2 16 -1 19 -3 4 -6 -2 -5 -13z"/>
<path d="M700 455 c0 -25 18 -45 40 -44 9 0 6 4 -8 10 -13 5 -21 12 -18 17 2
4 1 14 -5 22 -7 12 -9 11 -9 -5z"/>
<path d="M794 422 c2 -9 6 -16 10 -15 23 6 24 9 7 20 -16 10 -19 9 -17 -5z"/>
<path d="M768 393 c7 -3 16 -2 19 1 4 3 -2 6 -13 5 -11 0 -14 -3 -6 -6z"/>
</g>
</svg>
